<?xml version="1.0" encoding="UTF-8" standalone="no"?>
<!-- Created with Inkscape (http://www.inkscape.org/) -->

<svg
   xmlns:dc="http://purl.org/dc/elements/1.1/"
   xmlns:cc="http://creativecommons.org/ns#"
   xmlns:rdf="http://www.w3.org/1999/02/22-rdf-syntax-ns#"
   xmlns:svg="http://www.w3.org/2000/svg"
   xmlns="http://www.w3.org/2000/svg"
   xmlns:sodipodi="http://sodipodi.sourceforge.net/DTD/sodipodi-0.dtd"
   xmlns:inkscape="http://www.inkscape.org/namespaces/inkscape"
   enable-background="new"
   inkscape:export-ydpi="149.90031"
   inkscape:export-xdpi="149.90031"
   inkscape:export-filename="/home/mj/Desktop/it248.png"
   sodipodi:docname="it248_logo.svg"
   inkscape:version="0.91 r13725"
   version="1.1"
   id="svg2"
   viewBox="0 0 300 300"
   height="300"
   width="300">
  <sodipodi:namedview
     inkscape:snap-object-midpoints="true"
     inkscape:snap-bbox-edge-midpoints="true"
     inkscape:snap-bbox-midpoints="true"
     inkscape:snap-midpoints="true"
     inkscape:snap-page="true"
     inkscape:bbox-nodes="true"
     inkscape:bbox-paths="true"
     inkscape:snap-bbox="true"
     inkscape:snap-global="true"
     inkscape:window-maximized="1"
     inkscape:window-y="27"
     inkscape:window-x="0"
     inkscape:window-height="713"
     inkscape:window-width="1366"
     units="px"
     showgrid="false"
     inkscape:current-layer="layer1"
     inkscape:document-units="px"
     inkscape:cy="103.22173"
     inkscape:cx="274.62681"
     inkscape:zoom="0.78613779"
     inkscape:pageshadow="2"
     inkscape:pageopacity="0.0"
     borderopacity="1.0"
     bordercolor="#666666"
     pagecolor="#ffffff"
     id="base" />
  <defs
     id="defs4">
    <clipPath
       clipPathUnits="userSpaceOnUse"
       id="clipPath6169">
      <rect
         y="752.36218"
         x="0"
         height="300"
         width="300"
         id="rect6171"
         style="opacity:1;fill:#607d8b;fill-opacity:1;stroke:none;stroke-width:1;stroke-linecap:square;stroke-linejoin:miter;stroke-miterlimit:4;stroke-dasharray:none;stroke-dashoffset:0;stroke-opacity:1" />
    </clipPath>
  </defs>
  <metadata
     id="metadata7">
    <rdf:RDF>
      <cc:Work
         rdf:about="">
        <dc:format>image/svg+xml</dc:format>
        <dc:type
           rdf:resource="http://purl.org/dc/dcmitype/StillImage" />
        <dc:title />
      </cc:Work>
    </rdf:RDF>
  </metadata>
  <g
     style=""
     transform="translate(0,-752.36216)"
     id="layer1"
     inkscape:groupmode="layer"
     inkscape:label="Layer 1">
    <rect
       y="752.36218"
       x="0"
       height="300"
       width="300"
       id="rect4206"
       style="opacity:1;fill:#607d8b;fill-opacity:1;stroke:none;stroke-width:1;stroke-linecap:square;stroke-linejoin:miter;stroke-miterlimit:4;stroke-dasharray:none;stroke-dashoffset:0;stroke-opacity:1" />
    <path
       style="font-style:normal;font-variant:normal;font-weight:normal;font-stretch:normal;font-size:medium;line-height:125%;font-family:Roboto;-inkscape-font-specification:Roboto;text-align:center;letter-spacing:0px;word-spacing:0px;text-anchor:middle;opacity:0.3;fill:#000000;fill-opacity:1;stroke:none;stroke-width:1px;stroke-linecap:butt;stroke-linejoin:miter;stroke-opacity:1"
       d="m 48.814096,788.59149 c -0.403076,0 -0.795044,0.016 -1.173828,0.0449 -2.651493,0.20221 -4.706913,1.11073 -6.169922,2.73046 -1.6123,1.85113 -2.419922,4.1214 -2.419922,6.8086 0,2.68714 0.807622,4.92532 2.419922,6.71679 0.0598,0.064 0.11988,0.1277 0.18164,0.18946 l 30.003907,30.0039 0,1.60547 17.644531,17.64453 0,1.88086 -32.333985,-32.33398 -16.572265,0 0,96.91796 16.505859,16.50586 -14.277344,0 c -2.77,0 -5,2.23 -5,5 l 0,68.8262 c 0,2.77 2.23,5 5,5 l 207.130841,207.1328 c 0,2.77 2.23,5 5,5 l 60.10156,0 c 2.76999,0 5,-2.23 5,-5 l 0,-4.8281 8.36719,8.3672 c 0.90375,0.9037 2.15407,1.4609 3.53906,1.4609 l 60.10157,0 c 2.77,0 5,-2.23 5,-5 l 0,-7.5254 7.52539,7.5254 c 0,2.77 2.23,5 5,5 l 60.10156,0 c 2.77,0 5,-2.23 5,-5 l 0,-68.8261 c 0,-2.77 -2.23,-5 -5,-5 L 262.359,942.30633 c 0,-2.77 -2.23,-5 -5,-5 l -14.5957,0 -136.89063,-136.89257 -16.572246,0 0,23.46875 -0.613281,0 -32.798828,-32.79883 c -0.06116,-0.0612 -0.130305,-0.11296 -0.19336,-0.17187 -0.112271,-0.10489 -0.225487,-0.20891 -0.34375,-0.30664 -0.111919,-0.0925 -0.228419,-0.17953 -0.345703,-0.26563 -0.126721,-0.093 -0.253735,-0.18593 -0.386719,-0.27148 -0.12689,-0.0816 -0.259987,-0.15564 -0.392578,-0.23047 -0.127589,-0.072 -0.253851,-0.14523 -0.386719,-0.21094 -0.153853,-0.0761 -0.315632,-0.14328 -0.476562,-0.21094 -0.132477,-0.0557 -0.263119,-0.11408 -0.400391,-0.16406 -0.161202,-0.0587 -0.330232,-0.10739 -0.498047,-0.1582 -0.144568,-0.0438 -0.286071,-0.091 -0.435547,-0.12891 -0.184517,-0.0468 -0.378319,-0.0832 -0.570312,-0.12109 -0.143305,-0.0283 -0.282218,-0.0607 -0.429688,-0.084 -0.283765,-0.0449 -0.579725,-0.077 -0.878906,-0.10351 -0.05565,-0.005 -0.10788,-0.0152 -0.164062,-0.0195 -0.0038,-2.9e-4 -0.0079,2.8e-4 -0.01172,0 -0.375851,-0.0284 -0.760474,-0.0449 -1.160156,-0.0449 z"
       id="path5806"
       inkscape:connector-curvature="0"
       clip-path="url(#clipPath6169)" />
    <g
       id="g6008"
       transform="translate(-9.9999998e-7,-2.8323197e-5)">
      <g
         id="g4268"
         transform="translate(-13.014115,18.229342)">
        <g
           id="flowRoot4208-9"
           style="font-style:normal;font-weight:normal;font-size:122.58626556px;line-height:125%;font-family:sans-serif;letter-spacing:0px;word-spacing:0px;fill:#ffffff;fill-opacity:1;stroke:none;stroke-width:1px;stroke-linecap:butt;stroke-linejoin:miter;stroke-opacity:1"
           transform="matrix(1.496447,0,0,1.496447,-102.70201,770.35621)">
          <path
             inkscape:connector-curvature="0"
             id="path4427"
             style="font-style:normal;font-variant:normal;font-weight:normal;font-stretch:normal;font-size:122.58626556px;font-family:Roboto;-inkscape-font-specification:Roboto;text-align:center;text-anchor:middle;fill:#ffffff"
             d="m 115.40074,88.352294 -11.07347,0 0,-64.764814 11.07347,0 0,64.764814 z M 103.42942,6.4086429 q 0,-2.6935459 1.61613,-4.5490997 1.67598,-1.85555383 4.90824,-1.85555383 3.23225,0 4.90824,1.85555383 1.67598,1.8555538 1.67598,4.5490997 0,2.6935459 -1.67598,4.4892431 -1.67599,1.795697 -4.90824,1.795697 -3.23226,0 -4.90824,-1.795697 -1.61613,-1.7956972 -1.61613,-4.4892431 z" />
          <path
             inkscape:connector-curvature="0"
             id="path4429"
             style="font-style:normal;font-variant:normal;font-weight:normal;font-stretch:normal;font-size:122.58626556px;font-family:Roboto;-inkscape-font-specification:Roboto;text-align:center;text-anchor:middle;fill:#ffffff"
             d="m 148.08243,7.9050573 0,15.6824227 12.09103,0 0,8.55949 -12.09103,0 0,40.163762 q 0,3.890677 1.61613,5.865944 1.61612,1.915411 5.5068,1.915411 1.91541,0 5.26738,-0.718279 l 0,8.978486 q -4.36953,1.197132 -8.49963,1.197132 -7.42222,0 -11.19318,-4.489244 -3.77097,-4.489243 -3.77097,-12.74945 l 0,-40.163762 -11.79174,0 0,-8.55949 11.79174,0 0,-15.6824227 11.07347,0 z" />
        </g>
      </g>
      <path
         inkscape:connector-curvature="0"
         id="rect4302"
         d="m 42.631952,937.30581 60.101928,0 c 2.77,0 5,2.23 5,5 l 0,68.82709 c 0,2.77 -2.23,5 -5,5 l -60.101928,0 c -2.77,0 -5,-2.23 -5,-5 l 0,-68.82709 c 0,-2.77 2.23,-5 5,-5 z"
         style="opacity:1;fill:#ffffff;fill-opacity:1;stroke:none;stroke-width:1;stroke-linecap:square;stroke-linejoin:miter;stroke-miterlimit:4;stroke-dasharray:none;stroke-dashoffset:0;stroke-opacity:1" />
      <g
         id="flowRoot4304"
         style="font-style:normal;font-weight:normal;font-size:126.9644165px;line-height:125%;font-family:sans-serif;letter-spacing:0px;word-spacing:0px;fill:#607d8b;fill-opacity:1;stroke:none;stroke-width:1px;stroke-linecap:butt;stroke-linejoin:miter;stroke-opacity:1"
         transform="matrix(0.69057311,0,0,0.69057311,23.256122,293.8333)">
        <path
           inkscape:connector-curvature="0"
           id="path4433"
           style="font-style:normal;font-variant:normal;font-weight:500;font-stretch:normal;font-family:Roboto;-inkscape-font-specification:'Roboto Medium';fill:#607d8b;fill-opacity:1"
           d="m 102.78774,1034.6204 -60.692466,0 0,-10.3531 30.067257,-32.79498 q 6.509406,-7.25334 9.237157,-12.08889 2.789746,-4.89756 2.789746,-9.79511 0,-6.44741 -3.657667,-10.41505 -3.595672,-3.96764 -9.733112,-3.96764 -7.315332,0 -11.344965,4.46359 -4.029632,4.4636 -4.029632,12.21289 l -15.064626,0 q 0,-8.24525 3.719661,-14.81665 3.781655,-6.63339 10.725022,-10.29106 7.005361,-3.65767 16.118529,-3.65767 13.142801,0 20.706111,6.6334 7.625304,6.5714 7.625304,18.22634 0,6.75738 -3.843649,14.1967 -3.781655,7.37733 -12.460863,16.80047 l -22.069987,23.61986 41.90818,0 0,12.0269 z" />
      </g>
      <path
         inkscape:connector-curvature="0"
         id="rect4302-5"
         d="m 119.63961,937.30581 60.10193,0 c 2.77,0 5,2.23 5,5 l 0,68.82709 c 0,2.77 -2.23,5 -5,5 l -60.10193,0 c -2.77,0 -5,-2.23 -5,-5 l 0,-68.82709 c 0,-2.77 2.23,-5 5,-5 z"
         style="opacity:1;fill:#ffffff;fill-opacity:1;stroke:none;stroke-width:1;stroke-linecap:square;stroke-linejoin:miter;stroke-miterlimit:4;stroke-dasharray:none;stroke-dashoffset:0;stroke-opacity:1" />
      <path
         inkscape:connector-curvature="0"
         id="rect4302-5-0"
         d="m 197.26612,937.30581 60.10193,0 c 2.77,0 5,2.23 5,5 l 0,68.82709 c 0,2.77 -2.23,5 -5,5 l -60.10193,0 c -2.77,0 -5,-2.23 -5,-5 l 0,-68.82709 c 0,-2.77 2.23,-5 5,-5 z"
         style="opacity:1;fill:#ffffff;fill-opacity:1;stroke:none;stroke-width:1;stroke-linecap:square;stroke-linejoin:miter;stroke-miterlimit:4;stroke-dasharray:none;stroke-dashoffset:0;stroke-opacity:1" />
      <g
         transform="matrix(2.2009026,0,0,2.2009026,-288.88655,744.62021)"
         style="font-style:normal;font-weight:normal;font-size:40px;line-height:125%;font-family:sans-serif;letter-spacing:11.77000046px;word-spacing:0px;fill:#607d8b;fill-opacity:1;stroke:none;stroke-width:1px;stroke-linecap:butt;stroke-linejoin:miter;stroke-opacity:1"
         id="flowRoot5317">
        <path
           d="m 209.95508,113.54228 -3.84766,0 0,6.23047 -4.47265,0 0,-6.23047 -13.04688,0 0,-3.53515 13.04688,-18.867189 4.47265,0 0,18.593749 3.84766,0 0,3.80859 z m -8.32031,-3.80859 0,-7.16797 q 0,-3.828123 0.19531,-6.269529 l -0.15625,0 q -0.54688,1.289062 -1.71875,3.125 l -7.08985,10.312499 8.76954,0 z"
           style="font-style:normal;font-variant:normal;font-weight:600;font-stretch:normal;font-family:'Open Sans';-inkscape-font-specification:'Open Sans Semi-Bold';text-align:center;text-anchor:middle;fill:#607d8b;fill-opacity:1"
           id="path5334"
           inkscape:connector-curvature="0" />
      </g>
      <g
         transform="translate(0.33660744,-0.10754132)"
         style="font-style:normal;font-weight:normal;font-size:88.03610229px;line-height:125%;font-family:sans-serif;letter-spacing:25.90462494px;word-spacing:0px;fill:#607d8b;fill-opacity:1;stroke:none;stroke-width:1px;stroke-linecap:butt;stroke-linejoin:miter;stroke-opacity:1"
         id="flowRoot5325">
        <path
           d="m 226.95898,944.56562 q 8.94117,0 14.14252,4.12669 5.20135,4.08371 5.20135,10.96153 0,9.67193 -11.60632,15.38912 7.39366,3.69683 10.48868,7.78054 3.138,4.0837 3.138,9.11311 0,7.78053 -5.71718,12.46609 -5.71719,4.6855 -15.4751,4.6855 -10.23076,0 -15.86197,-4.3846 -5.63122,-4.3846 -5.63122,-12.4231 0,-5.24434 2.92307,-9.41402 2.96606,-4.21266 9.67194,-7.47963 -5.76018,-3.43891 -8.2104,-7.2647 -2.45022,-3.82578 -2.45022,-8.59727 0,-6.83483 5.3733,-10.87555 5.37329,-4.08371 14.01355,-4.08371 z m -11.6493,47.37099 q 0,4.47058 3.138,6.96379 3.13801,2.4502 8.5113,2.4502 5.54525,0 8.59728,-2.53617 3.09502,-2.57918 3.09502,-6.96379 0,-3.4819 -2.8371,-6.36199 -2.8371,-2.88009 -8.59728,-5.33031 l -1.2466,-0.55882 q -5.6742,2.49321 -8.16741,5.50225 -2.49321,2.96606 -2.49321,6.83484 z m 11.56333,-39.59046 q -4.29864,0 -6.92081,2.14932 -2.62216,2.10634 -2.62216,5.76018 0,2.23529 0.9457,3.99773 0.9457,1.76244 2.75112,3.22398 1.80543,1.41855 6.10407,3.43891 5.15837,-2.27828 7.2647,-4.77149 2.14932,-2.53619 2.14932,-5.88913 0,-3.65384 -2.66516,-5.76018 -2.62217,-2.14932 -7.00678,-2.14932 z"
           style="font-style:normal;font-variant:normal;font-weight:600;font-stretch:normal;font-family:'Open Sans';-inkscape-font-specification:'Open Sans Semi-Bold';text-align:center;text-anchor:middle;fill:#607d8b;fill-opacity:1"
           id="path5337"
           inkscape:connector-curvature="0" />
      </g>
    </g>
  </g>
</svg>
